<svg width="18" height="35" viewBox="0 0 18 35" fill="none" xmlns="http://www.w3.org/2000/svg">
<g id="XMLID_834_">
<path id="XMLID_835_" d="M4.90108 18.141V18.641V34.4355C4.90108 34.4712 4.9299 34.5 4.9656 34.5H11.4706C11.5063 34.5 11.5351 34.4712 11.5351 34.4355V18.7154V18.2154H12.0351H16.4456C16.4783 18.2154 16.5059 18.1908 16.5097 18.1583L16.5097 18.1581L17.1795 12.3435L4.90108 18.141ZM4.90108 18.141H4.40108M4.90108 18.141H4.40108M4.40108 18.141H0.564516C0.52895 18.141 0.5 18.1122 0.5 18.0764V12.3359C0.5 12.3002 0.52882 12.2714 0.564516 12.2714H4.59211H5.09211V11.7714V7.50908V7.46592L5.08472 7.4234C5.0159 7.02772 4.70029 4.58253 6.93083 2.53018C8.97142 0.652915 11.5738 0.5 12.3282 0.5C12.426 0.5 12.4896 0.50241 12.5135 0.503579L12.5257 0.504177M4.40108 18.141L12.5257 0.504177M17.1156 6.4706L17.1155 5.9706H17.1154H17.1152H17.115H17.1147H17.1143H17.1138H17.1133H17.1127H17.112H17.1113H17.1104H17.1096H17.1086H17.1076H17.1065H17.1054H17.1041H17.1028H17.1015H17.1001H17.0986H17.097H17.0954H17.0937H17.092H17.0901H17.0883H17.0863H17.0843H17.0822H17.0801H17.0779H17.0756H17.0733H17.0709H17.0684H17.0659H17.0634H17.0607H17.058H17.0553H17.0524H17.0496H17.0466H17.0436H17.0406H17.0374H17.0343H17.031H17.0277H17.0244H17.0209H17.0175H17.0139H17.0104H17.0067H17.003H16.9993H16.9955H16.9916H16.9877H16.9837H16.9797H16.9756H16.9714H16.9672H16.963H16.9587H16.9543H16.9499H16.9455H16.9409H16.9364H16.9318H16.9271H16.9224H16.9176H16.9128H16.9079H16.903H16.898H16.893H16.8879H16.8828H16.8776H16.8724H16.8671H16.8618H16.8564H16.851H16.8456H16.8401H16.8345H16.8289H16.8233H16.8176H16.8119H16.8061H16.8002H16.7944H16.7885H16.7825H16.7765H16.7705H16.7644H16.7582H16.7521H16.7458H16.7396H16.7333H16.7269H16.7205H16.7141H16.7076H16.7011H16.6946H16.688H16.6814H16.6747H16.668H16.6612H16.6544H16.6476H16.6408H16.6339H16.6269H16.6199H16.6129H16.6059H16.5988H16.5917H16.5845H16.5773H16.5701H16.5628H16.5555H16.5482H16.5408H16.5334H16.526H16.5185H16.511H16.5035H16.4959H16.4883H16.4807H16.473H16.4653H16.4576H16.4498H16.4421H16.4342H16.4264H16.4185H16.4106H16.4027H16.3947H16.3867H16.3787H16.3706H16.3625H16.3544H16.3463H16.3381H16.3299H16.3217H16.3135H16.3052H16.2969H16.2886H16.2802H16.2719H16.2635H16.2551H16.2466H16.2381H16.2296H16.2211H16.2126H16.204H16.1954H16.1868H16.1782H16.1696H16.1609H16.1522H16.1435H16.1348H16.126H16.1172H16.1084H16.0996H16.0908H16.0819H16.0731H16.0642H16.0553H16.0464H16.0374H16.0285H16.0195H16.0105H16.0015H15.9924H15.9834H15.9743H15.9653H15.9562H15.9471H15.938H15.9288H15.9197H15.9105H15.9014H15.8922H15.883H15.8738H15.8645H15.8553H15.8461H15.8368H15.8275H15.8183H15.809H15.7997H15.7903H15.781H15.7717H15.7624H15.753H15.7436H15.7343H15.7249H15.7155H15.7061H15.6967H15.6873H15.6779H15.6685H15.6591H15.6496H15.6402H15.6308H15.6213H15.6119H15.6024H15.5929H15.5835H15.574H15.5645H15.5551H15.5456H15.5361H15.5266H15.5171H15.5076H15.4981H15.4887H15.4792H15.4697H15.4602H15.4507H15.4412H15.4317H15.4222H15.4127H15.4032H15.3937H15.3842H15.3747H15.3653H15.3558H15.3463H15.3368H15.3274H15.3179H15.3084H15.299H15.2895H15.2801H15.2706H15.2612H15.2517H15.2423H15.2329H15.2235H15.214H15.2046H15.1952H15.1859H15.1765H15.1671H15.1577H15.1484H15.139H15.1297H15.1204H15.111H15.1017H15.0924H15.0831H15.0739H15.0646H15.0553H15.0461H15.0368H15.0276H15.0184H15.0092H15H14.9909H14.9817H14.9726H14.9634H14.9543H14.9452H14.9361H14.9271H14.918H14.909H14.9H14.8909H14.882H14.873H14.864H14.8551H14.8462H14.8373H14.8284H14.8195H14.8107H14.8018H14.793H14.7842H14.7755H14.7667H14.758H14.7493H14.7406H14.7319H14.7233H14.7146H14.706H14.6975H14.6889H14.6804H14.6718H14.6634H14.6549H14.6465H14.638H14.6296H14.6213H14.6129H14.6046H14.5963H14.5881H14.5798H14.5716H14.5634H14.5553H14.5471H14.539H14.5309H14.5229H14.5149H14.5069H14.4989H14.491H14.4831H14.4752H14.4674H14.4595H14.4518H14.444H14.4363H14.4286H14.4209H14.4133H14.4057H14.3981H14.3906H14.3831H14.3756H14.3682H14.3608H14.3535H14.3461H14.3388H14.3316H14.3244H14.3172H14.31H14.3029H14.2958H14.2888H14.2818H14.2748H14.2679H14.261H14.2541H14.2473H14.2405H14.2338H14.2271H14.2204H14.2138H14.2072H14.2006H14.1941H14.1877H14.1813H14.1749H14.1685H14.1622H14.156H14.1498H14.1436H14.1375H14.1314H14.1254H14.1194H14.1134H14.1075H14.1016H14.0958H14.09H14.0843H14.0786H14.073H14.0674H14.0618H14.0563H14.0509H14.0455H14.0401H14.0348H14.0296H14.0244H14.0192H14.0141H14.009H14.004H13.999H13.9941H13.9892H13.9844H13.9797H13.9749H13.9703H13.9657H13.9611H13.9566H13.9522H13.9478H13.9434H13.9391H13.9349H13.9307H13.9265H13.9225H13.9184H13.9145H13.9106H13.9067H13.9029H13.8992H13.8955H13.8918H13.8883H13.8847H13.8813H13.8779H13.8745H13.8712H13.868H13.8648H13.8617H13.8587H13.8557H13.8527H13.8499H13.847H13.8443H13.8416H13.839H13.8364H13.8339H13.8315H13.8291H13.8268H13.8245H13.8223H13.8202H13.8181H13.8161H13.8142H13.8123H13.8105H13.8087H13.8071H13.8055H13.8039H13.8024H13.801H13.7997H13.7984H13.7972H13.796H13.795H13.794C13.1389 5.9706 12.5548 6.12656 12.1343 6.52252C11.7083 6.92368 11.5354 7.49031 11.5354 8.12655V11.7715V12.2715H12.0354H17.1156C17.1337 12.2715 17.1514 12.2793 17.1638 12.2932L17.1156 6.4706ZM17.1156 6.4706V5.9706M17.1156 6.4706V5.9706M12.5257 0.504177H12.5379M12.5257 0.504177H12.5379M12.5379 0.504177H17.1156C17.1513 0.504177 17.1801 0.532997 17.1801 0.568694V5.90608C17.1801 5.94173 17.1512 5.9706 17.1156 5.9706M12.5379 0.504177L17.1156 5.9706M17.1638 12.2932C17.1757 12.3066 17.1816 12.3248 17.1795 12.3434L17.1638 12.2932Z" stroke="black"/>
</g>
</svg>
